<svg xmlns="http://www.w3.org/2000/svg" width="16.005" height="16.005" viewBox="0 0 16.005 16.005">
  <path id="Path_48" data-name="Path 48" d="M-111-7a8,8,0,0,0-8,8,8,8,0,0,0,8,8,8,8,0,0,0,8-8A8,8,0,0,0-111-7Zm0,14.972A6.969,6.969,0,0,1-117.967,1,6.969,6.969,0,0,1-111-5.967,6.969,6.969,0,0,1-104.028,1,6.969,6.969,0,0,1-111,7.972Zm4.508-9.67a.516.516,0,0,1-.384.621,25.228,25.228,0,0,1-2.862.552c.017,3.706.425,4.517.879,5.68a.645.645,0,0,1-.366.836.645.645,0,0,1-.836-.366,10.2,10.2,0,0,1-.783-2.816h-.313a10.2,10.2,0,0,1-.783,2.816.645.645,0,0,1-.836.366.645.645,0,0,1-.366-.836c.455-1.164.862-1.976.879-5.68a25.227,25.227,0,0,1-2.862-.552.516.516,0,0,1-.384-.621.516.516,0,0,1,.621-.384,12.851,12.851,0,0,0,7.773,0,.517.517,0,0,1,.621.384Zm-5.74-1.372A1.232,1.232,0,0,1-111-4.3a1.232,1.232,0,0,1,1.232,1.232A1.232,1.232,0,0,1-111-1.837,1.232,1.232,0,0,1-112.23-3.07Z" transform="translate(119 7)" fill="#fff"/>
</svg>
