<svg xmlns="http://www.w3.org/2000/svg" width="15.543" height="12.565" viewBox="0 0 15.543 12.565">
  <g id="Group_7" data-name="Group 7" transform="translate(-481.781 -347.625)">
    <g id="Group_6" data-name="Group 6" transform="translate(483.767 348.619)">
      <path id="Path_8" data-name="Path 8" d="M488.585,355.576a.6.6,0,1,0,.6.6C489.276,355.921,488.931,355.576,488.585,355.576Z" transform="translate(-484.613 -349.704)" fill="#0f2940"/>
      <path id="Path_9" data-name="Path 9" d="M493.185,355.576a.6.6,0,1,0,.6.6A.649.649,0,0,0,493.185,355.576Z" transform="translate(-485.241 -349.704)" fill="#0f2940"/>
      <path id="Path_10" data-name="Path 10" d="M489.866,348.776a5.785,5.785,0,1,0,5.785,5.785A5.786,5.786,0,0,0,489.866,348.776Zm4.318,7.858a12.557,12.557,0,0,1-8.462-.086c-.259-.173-.259-.345-.345-.6v-1.382a.755.755,0,0,1,.432-.777,28.753,28.753,0,0,1,8.2-.086c.345.086.691.086.691.6v1.554A1.373,1.373,0,0,1,494.184,356.634Z" transform="translate(-484.081 -348.776)" fill="#0f2940"/>
    </g>
    <path id="Path_11" data-name="Path 11" d="M497.065,355.441a.267.267,0,0,1-.086.173,5.313,5.313,0,0,1-.259,1.554,4.29,4.29,0,0,1-1.123,1.641,3.374,3.374,0,0,1-1.641.863h-.086l.086-.086a.085.085,0,0,1,.086-.086v-.086h.086a3.775,3.775,0,0,0,2.591-2.5,4.334,4.334,0,0,0,.173-1.036h-.086c0,.086-.086.432-.086.518a.3.3,0,0,1-.086.173h-.6c-.086,0-.173,0-.173-.086V352.5c0-.086,0-.086.086-.086-1.554-5.526-10.621-6.131-12.78-.086h0c.086,0,.173,0,.173.086v3.972c0,.086,0,.086-.173.086h-.518c-.173,0-.173-.173-.173-.345,0-.086,0-.345-.086-.345s-.259,0-.259-.173,0-.345-.086-.345-.173,0-.173-.086a8.878,8.878,0,0,1-.086-1.554c0-.259.173-.259.173-.259.086,0,0-.259.086-.345a.186.186,0,0,1,.173-.173h.086c0-.086.086-.432.086-.518a.186.186,0,0,1,.173-.173h.345c1.641-5.872,11.226-6.217,13.3,0h.259c.173,0,.173.173.173.345,0,.086,0,.345.086.345s.259,0,.259.173,0,.345.086.345.173,0,.173.086a8.878,8.878,0,0,1,.086,1.554C497.238,355.354,497.151,355.441,497.065,355.441Z" fill="#0f2940"/>
  </g>
</svg>
