<svg xmlns="http://www.w3.org/2000/svg" width="12.294" height="12.294" viewBox="0 0 12.294 12.294">
  <path id="Path_14" data-name="Path 14" d="M12.092,36.119l.2-1.1a.329.329,0,0,0-.324-.387H9.911l.4-2.247A.329.329,0,0,0,9.988,32H8.873a.329.329,0,0,0-.324.271l-.422,2.363H5.421l.4-2.247A.329.329,0,0,0,5.5,32H4.383a.329.329,0,0,0-.324.271l-.422,2.363H1.466a.329.329,0,0,0-.324.271L.946,36a.329.329,0,0,0,.324.387H3.323L2.7,39.9H.525a.329.329,0,0,0-.324.271l-.2,1.1a.329.329,0,0,0,.324.387H2.382l-.4,2.247a.329.329,0,0,0,.324.387H3.42a.329.329,0,0,0,.324-.271l.422-2.363H6.873l-.4,2.247a.329.329,0,0,0,.324.387H7.911a.329.329,0,0,0,.324-.271l.422-2.363h2.17a.329.329,0,0,0,.324-.271l.2-1.1a.329.329,0,0,0-.324-.387H8.97L9.6,36.391h2.17A.329.329,0,0,0,12.092,36.119ZM7.186,39.9H4.48l.627-3.512H7.814Z" transform="translate(0 -32)" fill="#fff"/>
</svg>
