<svg xmlns="http://www.w3.org/2000/svg" width="13.023" height="9.767" viewBox="0 0 13.023 9.767">
  <path id="Path_20" data-name="Path 20" d="M12.776,67.225a.153.153,0,0,1,.247.12v5.2A1.221,1.221,0,0,1,11.8,73.767H1.221A1.221,1.221,0,0,1,0,72.546v-5.2a.152.152,0,0,1,.247-.12c.57.443,1.325,1,3.92,2.889a4.55,4.55,0,0,0,2.345,1.211,4.553,4.553,0,0,0,2.348-1.211C11.454,68.232,12.206,67.668,12.776,67.225ZM6.511,70.511c.59.01,1.44-.743,1.867-1.053,3.375-2.449,3.632-2.663,4.41-3.274a.609.609,0,0,0,.234-.481v-.483A1.221,1.221,0,0,0,11.8,64H1.221A1.221,1.221,0,0,0,0,65.221V65.7a.612.612,0,0,0,.234.481c.778.608,1.035.824,4.41,3.274.427.31,1.277,1.063,1.867,1.053Z" transform="translate(0 -64)" fill="#fff"/>
</svg>
