<svg xmlns="http://www.w3.org/2000/svg" width="66.306" height="53.044" viewBox="0 0 66.306 53.044">
  <path id="Path_33" data-name="Path 33" d="M25.941,11.42l2.619,2.047A6.6,6.6,0,0,1,33.149,11.6a1.658,1.658,0,0,0,0-3.315A9.892,9.892,0,0,0,25.941,11.42Zm7.208-6.447A13.19,13.19,0,0,1,44.1,25.618l3.909,3.055a18.037,18.037,0,0,0,3.372-10.439A18.234,18.234,0,0,0,33.149,0,17.924,17.924,0,0,0,19.394,6.3l3.92,3.065A12.966,12.966,0,0,1,33.149,4.973Zm-8.282,42.6a1.655,1.655,0,0,0,.278.916L27.684,52.3a1.658,1.658,0,0,0,1.38.74h8.169a1.656,1.656,0,0,0,1.38-.74l2.539-3.817a1.666,1.666,0,0,0,.278-.916l.005-4.474H24.863Zm4.965-7.788v-.011a4.808,4.808,0,0,0-.229-1.464,33.189,33.189,0,0,0-4.1-8.293L15.35,22.076a18.157,18.157,0,0,0,4.077,8.154,29.648,29.648,0,0,1,5.431,9.548v.006ZM65.679,48.8,3.726.364A1.658,1.658,0,0,0,1.4.622L.36,1.916a1.657,1.657,0,0,0,.258,2.33L62.572,52.681a1.659,1.659,0,0,0,2.33-.258l1.036-1.294a1.657,1.657,0,0,0-.259-2.33Z" transform="translate(0.004)" fill="#1a658e"/>
</svg>
