<svg xmlns="http://www.w3.org/2000/svg" width="43.735" height="58.313" viewBox="0 0 43.735 58.313">
  <path id="Path_25" data-name="Path 25" d="M40.09,14.578H34.623V1.822a1.822,1.822,0,1,0-3.645,0V14.578H12.756V1.822a1.822,1.822,0,0,0-3.645,0V14.578H3.645A3.645,3.645,0,0,0,0,18.223v3.645a3.645,3.645,0,0,0,3.645,3.645v3.645a18.183,18.183,0,0,0,16.4,18.038V58.313H23.69V47.195a18.183,18.183,0,0,0,16.4-18.038V25.512a3.645,3.645,0,0,0,3.645-3.645V18.223A3.645,3.645,0,0,0,40.09,14.578ZM36.446,29.157a14.578,14.578,0,1,1-29.157,0V25.512H36.446Zm3.645-7.289H3.645V18.223H40.09Z" fill="#1a658e"/>
</svg>
