<svg xmlns="http://www.w3.org/2000/svg" width="44.446" height="50.795" viewBox="0 0 44.446 50.795">
  <path id="Path_26" data-name="Path 26" d="M19.048,10.615v3.968a1.191,1.191,0,0,1-1.191,1.191H13.889A1.191,1.191,0,0,1,12.7,14.584V10.615a1.191,1.191,0,0,1,1.191-1.191h3.968A1.191,1.191,0,0,1,19.048,10.615ZM30.557,9.425H26.588A1.191,1.191,0,0,0,25.4,10.615v3.968a1.191,1.191,0,0,0,1.191,1.191h3.968a1.191,1.191,0,0,0,1.191-1.191V10.615A1.191,1.191,0,0,0,30.557,9.425Zm-12.7,9.524H13.889A1.191,1.191,0,0,0,12.7,20.14v3.968A1.191,1.191,0,0,0,13.889,25.3h3.968a1.191,1.191,0,0,0,1.191-1.191V20.14A1.191,1.191,0,0,0,17.858,18.949Zm12.7,0H26.588A1.191,1.191,0,0,0,25.4,20.14v3.968A1.191,1.191,0,0,0,26.588,25.3h3.968a1.191,1.191,0,0,0,1.191-1.191V20.14A1.191,1.191,0,0,0,30.557,18.949Zm-12.7,9.524H13.889A1.191,1.191,0,0,0,12.7,29.664v3.968a1.191,1.191,0,0,0,1.191,1.191h3.968a1.191,1.191,0,0,0,1.191-1.191V29.664A1.191,1.191,0,0,0,17.858,28.473Zm12.7,0H26.588A1.191,1.191,0,0,0,25.4,29.664v3.968a1.191,1.191,0,0,0,1.191,1.191h3.968a1.191,1.191,0,0,0,1.191-1.191V29.664A1.191,1.191,0,0,0,30.557,28.473ZM44.446,48.811V50.8H0V48.811a1.191,1.191,0,0,1,1.191-1.191H3.175V2.381A2.381,2.381,0,0,1,5.556,0H38.89a2.381,2.381,0,0,1,2.381,2.381v45.24h1.984A1.191,1.191,0,0,1,44.446,48.811ZM38.1,47.621V3.175H6.349V47.621h12.7V39.188A1.191,1.191,0,0,1,20.239,38h3.968A1.191,1.191,0,0,1,25.4,39.188v8.433Z" fill="#1a658e"/>
</svg>
