<svg xmlns="http://www.w3.org/2000/svg" width="47.904" height="42.582" viewBox="0 0 47.904 42.582">
  <path id="Path_27" data-name="Path 27" d="M45.244,15.376V2.661A2.688,2.688,0,0,0,42.583,0h0a2.655,2.655,0,0,0-1.662.584L33.849,6.242a20.186,20.186,0,0,1-12.558,4.4H5.323A5.322,5.322,0,0,0,0,15.968v7.984a5.322,5.322,0,0,0,5.323,5.323l-.04,2.661a21.069,21.069,0,0,0,2.126,9.227,2.61,2.61,0,0,0,2.362,1.419H18.61a2.644,2.644,0,0,0,2.154-4.205,10.591,10.591,0,0,1-2.175-6.441,10.064,10.064,0,0,1,.367-2.661h2.335a20.182,20.182,0,0,1,12.557,4.4l7.072,5.658a2.66,2.66,0,0,0,4.323-2.078V24.545a5.279,5.279,0,0,0,0-9.169ZM18.61,39.921l-8.807,0a17.946,17.946,0,0,1-1.86-7.942l.04-2.661v-.04h8.261a12.671,12.671,0,0,0-.317,2.661,13.03,13.03,0,0,0,2.681,7.984ZM5.323,26.614a2.665,2.665,0,0,1-2.661-2.661V15.968a2.665,2.665,0,0,1,2.661-2.661H21.291V26.614ZM42.586,37.171a.413.413,0,0,1-.021.075L35.51,31.6a22.857,22.857,0,0,0-11.558-4.81V13.13a22.857,22.857,0,0,0,11.559-4.81L42.57,2.672a.012.012,0,0,0,.007,0s0,0,.006-.014l0,34.508Z" fill="#1a658e"/>
</svg>
