<svg xmlns="http://www.w3.org/2000/svg" width="13.729" height="18.31" viewBox="0 0 13.729 18.31">
  <path id="Path_46" data-name="Path 46" d="M13.225,3.4l-3-3A1.716,1.716,0,0,0,9.014-.1h-7.3A1.722,1.722,0,0,0,0,1.62V16.493A1.717,1.717,0,0,0,1.716,18.21h10.3a1.717,1.717,0,0,0,1.716-1.716V4.62A1.725,1.725,0,0,0,13.225,3.4Zm-.808.812a.562.562,0,0,1,.15.265H9.153V1.066a.562.562,0,0,1,.265.15Zm-.4,12.85H1.716a.574.574,0,0,1-.572-.572V1.62a.574.574,0,0,1,.572-.572H8.009V4.766a.856.856,0,0,0,.858.858h3.718V16.493A.574.574,0,0,1,12.013,17.065Zm-.787-6.121c-.483-.476-1.966-.329-2.635-.24A3.743,3.743,0,0,1,6.979,8.681a5.225,5.225,0,0,0,.229-2.32.836.836,0,0,0-1.595-.243,6.014,6.014,0,0,0,.3,2.782,34.422,34.422,0,0,1-1.505,3.168c-.744.383-1.934,1.048-2.1,1.874-.125.6.819,1.409,1.9.229a9.567,9.567,0,0,0,1.119-1.627,20.785,20.785,0,0,1,2.932-.858,5.455,5.455,0,0,0,2.31.712.867.867,0,0,0,.661-1.452ZM3.032,14.126A4.994,4.994,0,0,1,4.3,12.668C3.511,13.93,3.032,14.151,3.032,14.126Zm3.4-7.948c.311,0,.279,1.341.075,1.7A3.474,3.474,0,0,1,6.436,6.178Zm-1.015,5.7A16.771,16.771,0,0,0,6.45,9.6,4.658,4.658,0,0,0,7.7,11.08,13.07,13.07,0,0,0,5.42,11.874Zm5.485-.211s-.207.25-1.555-.325C10.816,11.23,11.055,11.566,10.9,11.663Z" transform="translate(0 0.1)" fill="#007bff"/>
</svg>
