<svg xmlns="http://www.w3.org/2000/svg" width="23.533" height="19.113" viewBox="0 0 23.533 19.113">
  <path id="Path_16" data-name="Path 16" d="M21.114,52.845c.015.209.015.418.015.627A13.629,13.629,0,0,1,7.406,67.2,13.63,13.63,0,0,1,0,65.03a9.978,9.978,0,0,0,1.165.06,9.659,9.659,0,0,0,5.988-2.061,4.832,4.832,0,0,1-4.51-3.345,6.082,6.082,0,0,0,.911.075,5.1,5.1,0,0,0,1.269-.164A4.824,4.824,0,0,1,.956,54.861V54.8a4.857,4.857,0,0,0,2.18.612,4.83,4.83,0,0,1-1.493-6.451,13.71,13.71,0,0,0,9.945,5.047,5.445,5.445,0,0,1-.119-1.1,4.828,4.828,0,0,1,8.347-3.3,9.5,9.5,0,0,0,3.061-1.165,4.81,4.81,0,0,1-2.12,2.658,9.669,9.669,0,0,0,2.777-.747,10.368,10.368,0,0,1-2.419,2.494Z" transform="translate(0 -48.082)" fill="#fff"/>
</svg>
