<svg xmlns="http://www.w3.org/2000/svg" width="195" height="101.26" viewBox="0 0 195 101.26">
  <g id="Group_17" data-name="Group 17" transform="translate(-620 -1248)">
    <text id="Stay_Connected" data-name="Stay Connected" transform="translate(620 1264)" fill="#fff" font-size="16" font-family="HelveticaNeue-Medium, Helvetica Neue" font-weight="500"><tspan x="0" y="0">Stay Connected</tspan></text>
    <text id="Today_s_Trending_News" data-name="Today’s Trending News" transform="translate(645 1292)" fill="#fff" font-size="16" font-family="HelveticaNeue-Medium, Helvetica Neue" font-weight="500"><tspan x="0" y="0">Today’s Trending News</tspan></text>
    <text id="Twitter" transform="translate(645 1319.217)" fill="#fff" font-size="16" font-family="HelveticaNeue-Medium, Helvetica Neue" font-weight="500"><tspan x="0" y="0">Twitter</tspan></text>
    <text id="Facebook" transform="translate(645 1346.26)" fill="#fff" font-size="16" font-family="HelveticaNeue-Medium, Helvetica Neue" font-weight="500"><tspan x="0" y="0">Facebook</tspan></text>
    <path id="Path_14" data-name="Path 14" d="M12.092,36.119l.2-1.1a.329.329,0,0,0-.324-.387H9.911l.4-2.247A.329.329,0,0,0,9.988,32H8.873a.329.329,0,0,0-.324.271l-.422,2.363H5.421l.4-2.247A.329.329,0,0,0,5.5,32H4.383a.329.329,0,0,0-.324.271l-.422,2.363H1.466a.329.329,0,0,0-.324.271L.946,36a.329.329,0,0,0,.324.387H3.323L2.7,39.9H.525a.329.329,0,0,0-.324.271l-.2,1.1a.329.329,0,0,0,.324.387H2.382l-.4,2.247a.329.329,0,0,0,.324.387H3.42a.329.329,0,0,0,.324-.271l.422-2.363H6.873l-.4,2.247a.329.329,0,0,0,.324.387H7.911a.329.329,0,0,0,.324-.271l.422-2.363h2.17a.329.329,0,0,0,.324-.271l.2-1.1a.329.329,0,0,0-.324-.387H8.97L9.6,36.391h2.17A.329.329,0,0,0,12.092,36.119ZM7.186,39.9H4.48l.627-3.512H7.814Z" transform="translate(621.55 1249.924)" fill="#fff"/>
    <path id="Path_16" data-name="Path 16" d="M12.185,50.831c.009.121.009.241.009.362a7.865,7.865,0,0,1-7.919,7.919A7.866,7.866,0,0,1,0,57.863a5.758,5.758,0,0,0,.672.034,5.574,5.574,0,0,0,3.456-1.189,2.788,2.788,0,0,1-2.6-1.93,3.51,3.51,0,0,0,.526.043,2.944,2.944,0,0,0,.732-.095A2.784,2.784,0,0,1,.551,51.994V51.96a2.8,2.8,0,0,0,1.258.353A2.788,2.788,0,0,1,.948,48.59,7.912,7.912,0,0,0,6.687,51.5a3.142,3.142,0,0,1-.069-.638,2.786,2.786,0,0,1,4.817-1.9,5.48,5.48,0,0,0,1.767-.672,2.776,2.776,0,0,1-1.224,1.534,5.58,5.58,0,0,0,1.6-.431,5.983,5.983,0,0,1-1.4,1.439Z" transform="translate(620.906 1261.093)" fill="#fff"/>
    <path id="Path_17" data-name="Path 17" d="M30.357,8.392l.414-2.7H28.181V3.94A1.35,1.35,0,0,1,29.7,2.481h1.178V.182A14.364,14.364,0,0,0,28.79,0a3.3,3.3,0,0,0-3.528,3.634V5.692H22.89v2.7h2.372V14.92h2.919V8.392Z" transform="translate(599.303 1332.988)" fill="#fff"/>
  </g>
</svg>
